<svg xmlns="http://www.w3.org/2000/svg" viewBox="0 0 512 512">
  <defs>
    <linearGradient id="g" x1="0" x2="1" y1="0" y2="1">
      <stop offset="0%" stop-color="#0ea5e9"/>
      <stop offset="100%" stop-color="#1d4ed8"/>
    </linearGradient>
  </defs>
  <rect width="512" height="512" rx="96" fill="url(#g)"/>
  <!-- stylized stopwatch -->
  <circle cx="256" cy="280" r="140" fill="none" stroke="#ffffff" stroke-width="28"/>
  <rect x="220" y="80" width="72" height="44" rx="10" fill="#fff"/>
  <rect x="180" y="60" width="40" height="28" rx="8" fill="#c7d2fe"/>
  <rect x="292" y="60" width="40" height="28" rx="8" fill="#c7d2fe"/>
  <line x1="256" y1="280" x2="256" y2="172" stroke="#ffffff" stroke-width="20" stroke-linecap="round"/>
  <line x1="256" y1="280" x2="332" y2="310" stroke="#ffffff" stroke-width="16" stroke-linecap="round"/>
  <!-- checker flag strip -->
  <g transform="translate(130,360) scale(0.9)">
    <rect x="0" y="0" width="252" height="64" rx="14" fill="#111827"/>
    <g fill="#fff">
      <rect x="16" y="12" width="28" height="20"/>
      <rect x="60" y="12" width="28" height="20"/>
      <rect x="104" y="12" width="28" height="20"/>
      <rect x="148" y="12" width="28" height="20"/>
      <rect x="192" y="12" width="28" height="20"/>
      <rect x="36" y="36" width="28" height="16"/>
      <rect x="80" y="36" width="28" height="16"/>
      <rect x="124" y="36" width="28" height="16"/>
      <rect x="168" y="36" width="28" height="16"/>
      <rect x="212" y="36" width="28" height="16"/>
    </g>
  </g>
</svg>

